<svg width="312" height="438" viewBox="0 0 312 438" fill="none" xmlns="http://www.w3.org/2000/svg">
<g style="mix-blend-mode:multiply" opacity="0.15">
<g style="mix-blend-mode:multiply" opacity="0.15">
<path d="M188.267 266.493L146.5 300.432C145.614 326.204 146.115 352.004 148 377.722C149.792 402.192 152.717 424.853 156.25 445.481H271.472L248.68 348.479C253.21 332.321 257.737 316.16 262.262 299.997C246.975 287.92 229.533 278.859 210.865 273.299L188.267 266.493Z" fill="#EA5F00"/>
</g>
<g style="mix-blend-mode:multiply" opacity="0.15">
<path d="M136.293 410.438C156.91 406.551 174.018 404.435 186.243 403.167C196.585 402.117 205.488 401.501 222.88 400.353C240.82 399.168 255.588 398.35 265.69 397.825C271.066 397.366 276.409 399.024 280.582 402.446C284.754 405.868 287.428 410.784 288.034 416.148C288.64 421.512 287.13 426.901 283.825 431.168C280.521 435.436 275.683 438.245 270.34 438.998L191.343 424.103C185.944 429.729 178.721 433.248 170.965 434.031C171.552 435.434 171.699 436.984 171.385 438.473C171.183 439.126 170.635 440.109 167.568 441.474C164.715 442.705 161.669 443.426 158.568 443.605C154.683 441.385 150.927 438.948 147.318 436.304C145.068 434.668 143.013 433.033 141.093 431.419C140.216 431.845 139.289 432.155 138.333 432.342C136.521 432.686 134.654 432.588 132.888 432.057C131.792 428.435 131.527 424.613 132.114 420.875C132.701 417.137 134.125 413.579 136.278 410.468L136.293 410.438Z" fill="#EA5F00"/>
</g>
<g style="mix-blend-mode:multiply" opacity="0.15">
<path d="M191.343 424.103L197.178 418.723" stroke="#EA5F00" stroke-width="2" stroke-linecap="round" stroke-linejoin="round"/>
</g>
<g style="mix-blend-mode:multiply" opacity="0.15">
<path d="M169.69 434.128L162.123 434.721V438.398" stroke="#EA5F00" stroke-width="2" stroke-linecap="round" stroke-linejoin="round"/>
</g>
<g style="mix-blend-mode:multiply" opacity="0.15">
<path d="M153.348 432.807V439.013" stroke="#EA5F00" stroke-width="2" stroke-linecap="round" stroke-linejoin="round"/>
</g>
<g style="mix-blend-mode:multiply" opacity="0.15">
<path d="M147.4 426.744C147.25 429.423 147.108 432.102 146.958 434.781" stroke="#EA5F00" stroke-width="2" stroke-linecap="round" stroke-linejoin="round"/>
</g>
<g style="mix-blend-mode:multiply" opacity="0.15">
<path d="M141.107 430.083V420.666" stroke="#EA5F00" stroke-width="2" stroke-linecap="round" stroke-linejoin="round"/>
</g>
<g style="mix-blend-mode:multiply" opacity="0.15">
<path d="M129.745 389.225C134.773 391.11 140.225 391.562 145.495 390.531L141.115 373.88L129.745 389.225Z" fill="#EA5F00"/>
</g>
<g style="mix-blend-mode:multiply" opacity="0.15">
<path d="M289.63 367.742C289.63 367.742 276.25 379.86 254.5 374.217C254.5 374.217 262.18 348.705 289.63 367.742Z" fill="#EA5F00"/>
</g>
<g style="mix-blend-mode:multiply" opacity="0.15">
<path d="M281.763 358.407L299.763 411.497C299.763 411.497 306.22 437.4 270.303 438.998L257.095 398.282L251.155 367.119L281.763 358.407Z" fill="#EA5F00"/>
</g>
<g style="mix-blend-mode:multiply" opacity="0.15">
<path d="M257.605 398.072L269.702 397.757L256.405 390.771C256.802 393.202 257.207 395.633 257.605 398.072Z" fill="#EA5F00"/>
</g>
<g style="mix-blend-mode:multiply" opacity="0.15">
<path d="M171.572 237.46L176.417 266.493L170.897 270.995C175.165 279.669 184 284.922 193.075 284.292C204.272 283.541 210.257 274.274 210.865 273.299C209.681 272.47 208.618 271.48 207.707 270.357C206.292 268.592 205.269 266.546 204.707 264.354L201.925 240.214L171.572 237.46Z" fill="#EA5F00"/>
</g>
<g style="mix-blend-mode:multiply" opacity="0.15">
<path d="M176.357 266.162C176.357 266.162 190.172 275.497 205.112 265.412L202.862 246.075L172.547 243.343L176.357 266.162Z" fill="#EA5F00"/>
</g>
<g style="mix-blend-mode:multiply" opacity="0.15">
<path d="M180.497 420.118C178.825 420.666 166.547 424.433 155.995 417.117C152.261 414.487 149.289 410.918 147.378 406.769C145.878 403.242 144.377 399.535 142.975 395.648C140.246 388.133 137.917 380.479 136 372.717C140.572 369.335 145.989 367.283 151.652 366.789C155.728 366.452 159.829 366.94 163.713 368.222C169.298 385.531 174.892 402.83 180.497 420.118Z" fill="#EA5F00"/>
</g>
<g style="mix-blend-mode:multiply" opacity="0.15">
<path d="M170.898 270.98C162.367 276.292 154.449 282.531 147.288 289.582C138.608 298.14 131.1 307.812 124.96 318.344C124.78 328.684 124.96 339.805 125.71 351.593C126.55 365.1 127.96 377.722 129.753 389.233C134.176 385.356 139.294 382.354 144.835 380.386C148.491 379.091 152.296 378.266 156.16 377.932C161.07 342.284 165.983 306.633 170.898 270.98Z" fill="#EA5F00"/>
</g>
<g style="mix-blend-mode:multiply" opacity="0.15">
<path d="M262.262 299.997C268.407 311.927 273.946 324.158 278.86 336.646C283.15 347.541 286.69 357.957 289.63 367.742C281.272 365.706 272.537 365.804 264.227 368.027C259.46 369.324 254.911 371.319 250.727 373.947C248.162 368.169 240.662 349.312 247.082 326.913C249.997 316.889 255.192 307.676 262.262 299.997Z" fill="#EA5F00"/>
</g>
<g style="mix-blend-mode:multiply" opacity="0.15">
<path d="M256.885 397.044C252.932 375.293 251.73 353.13 253.308 331.078" stroke="#EA5F00" stroke-width="3" stroke-linecap="round" stroke-linejoin="round"/>
</g>
<g style="mix-blend-mode:multiply" opacity="0.15">
<path d="M214.21 216.525C216.805 206.552 225.993 194.688 235.21 196.429C242.71 197.84 248.185 207.768 247.518 215.834C246.61 226.797 234.055 237.19 216.648 237.355C215.185 234.301 211.75 226.077 214.21 216.525Z" fill="#EA5F00"/>
</g>
<g style="mix-blend-mode:multiply" opacity="0.15">
<path d="M242.073 207.167C240.195 206.087 238.024 205.63 235.87 205.862C230.71 206.499 226.188 211.662 224.995 218.783C227.35 215.077 230.594 212.018 234.43 209.884C236.82 208.583 239.399 207.666 242.073 207.167Z" fill="#EA5F00"/>
</g>
<g style="mix-blend-mode:multiply" opacity="0.15">
<path d="M144.355 226.685C135.317 216.979 129.496 204.716 127.69 191.574L119.335 187.747C122.642 178.465 131.642 157.379 153.017 142.522C162.089 136.268 172.272 131.806 183.017 129.375C191.972 127.214 199.795 125.436 208.6 128.797C214.12 130.947 218.947 134.567 222.557 139.265C225.311 142.985 227.205 147.27 228.1 151.811C232.075 152.607 235.701 154.63 238.465 157.597C240.702 160.155 242.25 163.241 242.965 166.564C243.467 168.508 244.562 173.618 242.267 183.823C240.637 190.938 238.008 197.787 234.46 204.166L144.355 226.685Z" fill="#EA5F00"/>
</g>
<g style="mix-blend-mode:multiply" opacity="0.15">
<path d="M160.855 224.216C155.552 215.376 143.395 206.589 135.025 210.867C128.275 214.326 125.777 225.409 128.687 232.958C132.655 243.216 147.625 249.639 164.372 244.889C164.927 241.542 165.925 232.673 160.855 224.216Z" fill="#EA5F00"/>
</g>
<g style="mix-blend-mode:multiply" opacity="0.15">
<path d="M153.857 226.482C145.484 218.637 139.841 208.316 137.755 197.03L151.495 197.54L153.857 226.482Z" fill="#EA5F00"/>
</g>
<g style="mix-blend-mode:multiply" opacity="0.15">
<path d="M198.267 258.382C221.613 255.079 237.533 231.145 233.827 204.924C230.121 178.703 208.192 160.124 184.846 163.427C161.501 166.73 145.58 190.664 149.286 216.885C152.992 243.107 174.922 261.685 198.267 258.382Z" fill="#EA5F00"/>
</g>
<g style="mix-blend-mode:multiply" opacity="0.15">
<path d="M165.49 191.124C165.49 191.124 172.24 172.312 187.675 181.437C179.535 182.58 171.863 185.93 165.49 191.124Z" fill="#EA5F00"/>
</g>
<g style="mix-blend-mode:multiply" opacity="0.15">
<path d="M188.48 218.882C190.567 218.582 191.847 215.475 191.339 211.943C190.831 208.411 188.727 205.792 186.64 206.092C184.554 206.393 183.274 209.5 183.782 213.031C184.29 216.563 186.393 219.183 188.48 218.882Z" fill="#EA5F00"/>
</g>
<g style="mix-blend-mode:multiply" opacity="0.15">
<path d="M223.491 214.767C225.578 214.467 226.858 211.36 226.35 207.828C225.842 204.296 223.738 201.677 221.652 201.977C219.565 202.278 218.285 205.385 218.793 208.916C219.301 212.448 221.405 215.068 223.491 214.767Z" fill="#EA5F00"/>
</g>
<g style="mix-blend-mode:multiply" opacity="0.15">
<path d="M204.677 223.886C207.992 222.002 208.907 220.134 209.117 218.821C209.417 216.907 208.367 215.677 207.355 212.593C206.632 210.34 206.241 207.994 206.192 205.629C206.648 207.696 207.391 209.688 208.397 211.549C210.137 214.739 211.847 215.984 211.675 218.355C211.547 219.55 211.046 220.674 210.242 221.567C209.539 222.335 208.677 222.94 207.715 223.341C206.754 223.741 205.718 223.927 204.677 223.886Z" fill="#EA5F00"/>
</g>
<g style="mix-blend-mode:multiply" opacity="0.15">
<path d="M133.75 222.768C135.249 221.205 137.201 220.155 139.33 219.766C144.475 218.888 150.25 222.64 153.422 229.093C150.118 226.213 146.149 224.201 141.872 223.24C139.206 222.659 136.466 222.499 133.75 222.768Z" fill="#EA5F00"/>
</g>
<g style="mix-blend-mode:multiply" opacity="0.15">
<path d="M188.388 162.444C192.921 161.823 197.508 161.7 202.068 162.077C207.394 162.526 212.64 163.661 217.675 165.454C221.771 169.672 225.216 174.477 227.898 179.711C231.788 187.305 234.015 195.642 234.43 204.166L188.388 162.444Z" fill="#EA5F00"/>
</g>
<g style="mix-blend-mode:multiply" opacity="0.15">
<path d="M205.975 178.06C205.975 178.06 221.223 168.38 227.178 183.485C220.738 179.774 213.405 177.897 205.975 178.06Z" fill="#EA5F00"/>
</g>
<g style="mix-blend-mode:multiply" opacity="0.15">
<path d="M179.26 164.148C167.023 167.192 156.256 174.467 148.862 184.686L157.907 188.768L179.26 164.148Z" fill="#EA5F00"/>
</g>
<g style="mix-blend-mode:multiply" opacity="0.15">
<path d="M210.37 236.5C210.37 236.5 195.707 244.544 190.922 232.478C190.922 232.478 198.64 236.897 210.37 236.5Z" fill="#EA5F00"/>
</g>
<g style="mix-blend-mode:multiply" opacity="0.15">
<path d="M175.39 420.283C179.925 421.751 184.798 421.813 189.37 420.464C202.172 416.502 205.802 402.402 206.012 401.501L187.577 402.732C183.512 408.585 179.45 414.436 175.39 420.283Z" fill="#EA5F00"/>
</g>
<g style="mix-blend-mode:multiply" opacity="0.15">
<path d="M175.517 251.432C169.885 273.944 166.57 292.628 164.575 305.7C162.88 316.753 161.725 326.808 159.482 346.468C157.232 366.436 155.5 382.884 154.375 394.14C154.375 407.437 163.143 418.197 173.253 420.028C185.943 422.325 201.175 410.656 201.437 393.06L187 310.93C187 310.93 196.427 299.322 199.825 290.28C199.825 290.28 204.445 293.499 207.16 286.783C208.781 282.812 209.917 278.66 210.542 274.417L201.302 258.659C204.151 259.143 207.059 259.161 209.912 258.711C213.542 258.133 217.247 257.54 219.332 254.524C220.504 252.678 220.99 250.479 220.705 248.311C217.76 248.321 214.818 248.155 211.892 247.815C205.323 246.968 198.842 245.534 192.527 243.531L175.517 251.432Z" fill="#EA5F00"/>
</g>
<g style="mix-blend-mode:multiply" opacity="0.15">
<path d="M220.705 248.303C219.978 249.631 218.964 250.78 217.736 251.665C216.509 252.551 215.099 253.151 213.61 253.421C208.157 254.576 198.175 252.1 197.305 251.92C194.071 253.964 190.489 255.393 186.737 256.137C191.717 255.957 196.68 256.826 201.302 258.689C204.992 259.317 208.772 259.186 212.41 258.306C215.14 257.638 217.322 257.068 218.95 255.057C220.383 253.116 221.011 250.697 220.705 248.303Z" fill="#EA5F00"/>
</g>
<g style="mix-blend-mode:multiply" opacity="0.15">
<path d="M199.952 258.201C196.824 257.029 193.537 256.331 190.202 256.13C188.921 256.055 187.636 256.055 186.355 256.13" stroke="#EA5F00" stroke-width="2" stroke-linecap="round" stroke-linejoin="round"/>
</g>
<g style="mix-blend-mode:multiply" opacity="0.15">
<path d="M202.893 263.611L194.5 262.778" stroke="#EA5F00" stroke-width="2" stroke-linecap="round" stroke-linejoin="round"/>
</g>
<g style="mix-blend-mode:multiply" opacity="0.15">
<path d="M206.905 270.83L200.32 269.712" stroke="#EA5F00" stroke-width="2" stroke-linecap="round" stroke-linejoin="round"/>
</g>
<g style="mix-blend-mode:multiply" opacity="0.15">
<path d="M206.598 279.684L203.56 279.819L200.605 289.011" stroke="#EA5F00" stroke-width="2" stroke-linecap="round" stroke-linejoin="round"/>
</g>
<g style="mix-blend-mode:multiply" opacity="0.15">
<path d="M175.518 251.432L192.528 243.523L216.385 247.478" stroke="#EA5F00" stroke-width="2" stroke-linecap="round" stroke-linejoin="round"/>
</g>
</g>
<path d="M199.517 258.989L157.75 292.929C156.864 318.7 157.365 344.5 159.25 370.218C161.042 394.688 163.967 417.349 167.5 437.977H282.722L259.93 340.976C264.46 324.817 268.987 308.657 273.512 292.493C258.225 280.416 240.783 271.355 222.115 265.795L199.517 258.989Z" fill="#0FABBC"/>
<path d="M147.543 402.935C168.16 399.048 185.268 396.932 197.493 395.663C207.835 394.613 216.738 393.998 234.13 392.849C252.07 391.664 266.838 390.846 276.94 390.321C282.316 389.862 287.659 391.52 291.832 394.942C296.004 398.364 298.678 403.28 299.284 408.644C299.89 414.008 298.38 419.397 295.075 423.665C291.771 427.932 286.933 430.741 281.59 431.494L202.593 416.599C197.194 422.225 189.971 425.744 182.215 426.527C182.802 427.931 182.949 429.48 182.635 430.969C182.433 431.622 181.885 432.605 178.818 433.971C175.965 435.201 172.919 435.922 169.818 436.102C165.933 433.882 162.177 431.444 158.568 428.8C156.318 427.165 154.263 425.529 152.343 423.915C151.466 424.341 150.539 424.652 149.583 424.838C147.771 425.182 145.903 425.084 144.138 424.553C143.042 420.932 142.777 417.109 143.364 413.371C143.951 409.633 145.375 406.076 147.528 402.965L147.543 402.935Z" fill="#F3BE99"/>
<path d="M202.592 416.599L208.427 411.219" stroke="#D89780" stroke-width="2" stroke-linecap="round" stroke-linejoin="round"/>
<path d="M180.94 426.624L173.373 427.217V430.894" stroke="#D89780" stroke-width="2" stroke-linecap="round" stroke-linejoin="round"/>
<path d="M164.598 425.304V431.509" stroke="#D89780" stroke-width="2" stroke-linecap="round" stroke-linejoin="round"/>
<path d="M158.65 419.24C158.5 421.919 158.358 424.598 158.208 427.277" stroke="#D89780" stroke-width="2" stroke-linecap="round" stroke-linejoin="round"/>
<path d="M152.357 422.58V413.162" stroke="#D89780" stroke-width="2" stroke-linecap="round" stroke-linejoin="round"/>
<path d="M140.995 381.721C146.023 383.606 151.475 384.058 156.745 383.027L152.365 366.376L140.995 381.721Z" fill="#1381A3"/>
<path d="M300.88 360.238C300.88 360.238 287.5 372.357 265.75 366.714C265.75 366.714 273.43 341.201 300.88 360.238Z" fill="#1381A3"/>
<path d="M293.012 350.903L311.012 403.993C311.012 403.993 317.47 429.896 281.552 431.494L268.345 390.778L262.405 359.615L293.012 350.903Z" fill="#F3BE99"/>
<path d="M268.855 390.568L280.952 390.253L267.655 383.267C268.052 385.698 268.457 388.13 268.855 390.568Z" fill="#E8A692"/>
<path d="M182.822 229.956L187.667 258.989L182.147 263.491C186.415 272.165 195.25 277.418 204.325 276.788C215.522 276.037 221.507 266.77 222.115 265.795C220.931 264.966 219.868 263.976 218.957 262.853C217.542 261.089 216.519 259.042 215.957 256.85L213.175 232.71L182.822 229.956Z" fill="#F3BE99"/>
<path d="M187.607 258.658C187.607 258.658 201.422 267.993 216.362 257.908L214.112 238.571L183.797 235.839L187.607 258.658Z" fill="#E8A692"/>
<path d="M191.748 412.615C190.075 413.162 177.798 416.929 167.245 409.613C163.512 406.984 160.539 403.414 158.628 399.265C157.128 395.738 155.627 392.032 154.225 388.145C151.496 380.63 149.167 372.975 147.25 365.213C151.822 361.831 157.239 359.78 162.903 359.285C166.978 358.949 171.079 359.436 174.963 360.718C180.548 378.027 186.143 395.326 191.748 412.615Z" fill="#E8A692"/>
<path d="M182.148 263.476C173.617 268.788 165.699 275.027 158.538 282.078C149.858 290.636 142.35 300.308 136.21 310.84C136.03 321.18 136.21 332.301 136.96 344.09C137.8 357.596 139.21 370.218 141.003 381.729C145.426 377.852 150.544 374.85 156.085 372.882C159.741 371.587 163.546 370.762 167.41 370.428C172.32 334.78 177.233 299.129 182.148 263.476Z" fill="#0FABBC"/>
<path d="M273.512 292.493C279.657 304.423 285.196 316.655 290.11 329.142C294.4 340.038 297.94 350.453 300.88 360.238C292.522 358.202 283.787 358.3 275.477 360.523C270.71 361.82 266.161 363.815 261.977 366.443C259.412 360.666 251.912 341.808 258.332 319.41C261.247 309.385 266.442 300.172 273.512 292.493Z" fill="#0FABBC"/>
<path d="M268.135 389.54C264.181 367.789 262.979 345.626 264.557 323.574" stroke="#1381A3" stroke-width="3" stroke-linecap="round" stroke-linejoin="round"/>
<path d="M225.46 209.021C228.055 199.048 237.242 187.185 246.46 188.925C253.96 190.336 259.435 200.264 258.767 208.33C257.86 219.293 245.305 229.686 227.897 229.851C226.435 226.797 223 218.573 225.46 209.021Z" fill="#EAAB92"/>
<path d="M253.322 199.663C251.444 198.584 249.273 198.127 247.12 198.358C241.96 198.996 237.437 204.158 236.245 211.279C238.6 207.573 241.843 204.514 245.68 202.38C248.069 201.079 250.648 200.162 253.322 199.663Z" fill="#D89780"/>
<path d="M155.605 219.181C146.567 209.475 140.746 197.212 138.94 184.07L130.585 180.244C133.892 170.961 142.892 149.876 164.267 135.018C173.339 128.764 183.522 124.302 194.267 121.871C203.222 119.71 211.045 117.932 219.85 121.293C225.37 123.443 230.197 127.063 233.807 131.761C236.561 135.481 238.455 139.766 239.35 144.308C243.325 145.103 246.951 147.126 249.715 150.093C251.952 152.651 253.5 155.737 254.215 159.06C254.717 161.004 255.812 166.114 253.517 176.319C251.887 183.434 249.258 190.283 245.71 196.662L155.605 219.181Z" fill="#474748"/>
<path d="M172.105 216.712C166.802 207.873 154.645 199.086 146.275 203.363C139.525 206.822 137.027 217.905 139.937 225.454C143.905 235.712 158.875 242.135 175.622 237.385C176.177 234.038 177.175 225.169 172.105 216.712Z" fill="#EAAB92"/>
<path d="M165.107 218.978C156.734 211.133 151.091 200.812 149.005 189.526L162.745 190.036L165.107 218.978Z" fill="#474748"/>
<path d="M209.54 250.901C232.885 247.598 248.806 223.664 245.1 197.443C241.394 171.222 219.464 152.643 196.119 155.946C172.773 159.249 156.853 183.183 160.559 209.404C164.265 235.625 186.194 254.204 209.54 250.901Z" fill="#F3BE99"/>
<path d="M176.74 183.62C176.74 183.62 183.49 164.808 198.925 173.933C190.785 175.076 183.113 178.426 176.74 183.62Z" fill="#474748"/>
<path d="M199.732 211.382C201.819 211.082 203.099 207.975 202.591 204.443C202.083 200.911 199.979 198.292 197.892 198.592C195.805 198.893 194.526 202 195.034 205.531C195.542 209.063 197.645 211.683 199.732 211.382Z" fill="#474748"/>
<path d="M234.743 207.267C236.83 206.967 238.11 203.86 237.602 200.328C237.094 196.796 234.99 194.177 232.904 194.477C230.817 194.778 229.537 197.885 230.045 201.416C230.553 204.948 232.657 207.568 234.743 207.267Z" fill="#474748"/>
<path d="M215.927 216.382C219.242 214.498 220.157 212.63 220.367 211.317C220.667 209.403 219.617 208.173 218.605 205.089C217.882 202.836 217.491 200.49 217.442 198.125C217.898 200.192 218.641 202.184 219.647 204.046C221.387 207.235 223.097 208.48 222.925 210.852C222.797 212.046 222.296 213.17 221.492 214.063C220.789 214.831 219.927 215.436 218.965 215.837C218.004 216.237 216.968 216.423 215.927 216.382Z" fill="#474748"/>
<path d="M145 215.264C146.499 213.702 148.451 212.651 150.58 212.262C155.725 211.384 161.5 215.136 164.673 221.59C161.368 218.709 157.399 216.697 153.122 215.737C150.456 215.155 147.716 214.995 145 215.264Z" fill="#D89780"/>
<path d="M199.637 154.941C204.17 154.32 208.757 154.196 213.317 154.573C218.643 155.022 223.889 156.157 228.925 157.95C233.02 162.168 236.465 166.973 239.147 172.207C243.037 179.801 245.264 188.138 245.68 196.662L199.637 154.941Z" fill="#F3BE99"/>
<path d="M217.225 170.556C217.225 170.556 232.472 160.876 238.427 175.981C231.987 172.27 224.655 170.394 217.225 170.556Z" fill="#474748"/>
<path d="M190.51 156.644C178.273 159.689 167.506 166.963 160.112 177.182L169.157 181.264L190.51 156.644Z" fill="#F3BE99"/>
<path d="M221.62 228.996C221.62 228.996 206.957 237.04 202.172 224.974C202.172 224.974 209.89 229.394 221.62 228.996Z" fill="#474748"/>
<path d="M186.64 412.78C191.175 414.247 196.048 414.309 200.62 412.96C213.422 408.998 217.052 394.898 217.262 393.998L198.827 395.228C194.762 401.081 190.7 406.932 186.64 412.78Z" fill="#E8A692"/>
<path d="M186.768 243.928C181.135 266.44 177.82 285.125 175.825 298.196C174.13 309.249 172.975 319.304 170.732 338.965C168.482 358.932 166.75 375.381 165.625 386.636C165.625 399.933 174.393 410.694 184.503 412.525C197.193 414.821 212.425 403.152 212.688 385.556L198.25 303.426C198.25 303.426 207.678 291.818 211.075 282.776C211.075 282.776 215.695 285.995 218.41 279.279C220.031 275.308 221.167 271.156 221.793 266.913L212.553 251.155C215.401 251.639 218.309 251.657 221.162 251.207C224.792 250.629 228.497 250.037 230.582 247.02C231.754 245.174 232.24 242.975 231.955 240.807C229.01 240.817 226.068 240.652 223.143 240.312C216.573 239.464 210.092 238.03 203.777 236.027L186.768 243.928Z" fill="#F3BE99"/>
<path d="M231.955 240.799C231.228 242.127 230.214 243.276 228.986 244.162C227.759 245.047 226.349 245.647 224.86 245.917C219.407 247.073 209.425 244.596 208.555 244.416C205.321 246.46 201.739 247.89 197.987 248.633C202.967 248.453 207.93 249.322 212.552 251.185C216.242 251.813 220.022 251.683 223.66 250.802C226.39 250.134 228.572 249.564 230.2 247.553C231.633 245.612 232.261 243.193 231.955 240.799Z" fill="#E8A692"/>
<path d="M211.202 250.697C208.073 249.525 204.787 248.827 201.452 248.626C200.171 248.551 198.886 248.551 197.605 248.626" stroke="#D89780" stroke-width="2" stroke-linecap="round" stroke-linejoin="round"/>
<path d="M214.143 256.107L205.75 255.274" stroke="#D89780" stroke-width="2" stroke-linecap="round" stroke-linejoin="round"/>
<path d="M218.155 263.326L211.57 262.208" stroke="#D89780" stroke-width="2" stroke-linecap="round" stroke-linejoin="round"/>
<path d="M217.848 272.18L214.81 272.316L211.855 281.508" stroke="#D89780" stroke-width="2" stroke-linecap="round" stroke-linejoin="round"/>
<path d="M186.768 243.929L203.778 236.019L227.635 239.974" stroke="#D89780" stroke-width="2" stroke-linecap="round" stroke-linejoin="round"/>
<g style="mix-blend-mode:multiply" opacity="0.15">
<g style="mix-blend-mode:multiply" opacity="0.15">
<path d="M69.0473 145.943C106.993 145.943 137.755 115.166 137.755 77.2009C137.755 39.2355 106.993 8.45837 69.0473 8.45837C31.1012 8.45837 0.339844 39.2355 0.339844 77.2009C0.339844 115.166 31.1012 145.943 69.0473 145.943Z" fill="#EA5F00"/>
</g>
<g style="mix-blend-mode:multiply" opacity="0.15">
<path d="M124.9 109.76L133.772 137.254L103.667 126.921L124.9 109.76Z" fill="#EA5F00"/>
</g>
</g>
<path d="M80.2973 138.44C118.243 138.44 149.005 107.663 149.005 69.6971C149.005 31.7316 118.243 0.954529 80.2973 0.954529C42.3512 0.954529 11.5898 31.7316 11.5898 69.6971C11.5898 107.663 42.3512 138.44 80.2973 138.44Z" fill="white"/>
<path d="M136.15 102.256L145.015 129.75L114.917 119.417L136.15 102.256Z" fill="white"/>
<path d="M71.5975 87.8489C71.5375 87.1585 71.485 86.4682 71.4025 85.7778C71.1183 83.6159 70.3126 81.5556 69.055 79.7747C67.9957 78.3295 66.7325 77.0454 65.305 75.9628C63.0992 74.1602 61.2369 71.9741 59.8075 69.5095C58.3638 67.044 57.3637 64.3442 56.8525 61.5329C56.6065 60.2965 56.466 59.0413 56.4325 57.781C56.4014 56.1963 56.5093 54.612 56.755 53.0461C57.4111 48.9115 59.1326 45.0192 61.75 41.7529C63.4825 39.5784 65.5846 37.7266 67.96 36.2826C71.6865 34.0227 75.9677 32.8442 80.3251 32.8787C84.6826 32.9131 88.9446 34.1592 92.635 36.4777C94.9925 37.9468 97.0762 39.8157 98.7925 42.0005C100.545 44.2078 101.889 46.711 102.76 49.3917C103.271 50.962 103.63 52.5777 103.832 54.2167C104.077 56.0253 104.105 57.8568 103.915 59.672C103.544 63.5191 102.258 67.2214 100.165 70.47C99.167 71.9007 98.0825 73.2689 96.9175 74.5671C95.5215 76.2414 94.5513 78.229 94.09 80.36C93.743 82.1962 93.6948 84.0764 93.9475 85.9279C93.8139 85.9896 93.6666 86.0155 93.52 86.0029L90.0625 86.3031L87.88 86.4607C87.8073 86.3485 87.7659 86.219 87.76 86.0855L86.365 69.8322C86.3445 69.7369 86.3589 69.6374 86.4058 69.552C86.4526 69.4665 86.5287 69.4009 86.62 69.3669C87.9418 68.7327 89.181 67.9389 90.31 67.0032C91.4077 65.9879 92.0871 64.599 92.215 63.1087C92.2983 62.5491 92.2589 61.978 92.0996 61.4351C91.9403 60.8922 91.6649 60.3905 91.2925 59.9646C90.8618 59.4873 90.3255 59.1173 89.7265 58.8841C89.1275 58.6509 88.4824 58.5609 87.8425 58.6215C87.1632 58.6578 86.5089 58.8895 85.9581 59.2888C85.4073 59.6882 84.9835 60.2381 84.7375 60.8726C84.076 62.3177 83.8168 63.9147 83.9875 65.495L84.19 67.8512C84.19 67.9862 84.25 68.1213 84.04 68.2038C83.4838 68.417 82.905 68.5656 82.315 68.6466C81.1975 68.8316 80.0619 68.8819 78.9325 68.7966C78.3025 68.7366 78.2275 68.6766 78.1825 68.0463C78.1075 67.1833 78.0475 66.3129 77.95 65.4499C77.8589 64.7264 77.6749 64.0177 77.4025 63.3414C77.1463 62.6372 76.7792 61.9785 76.315 61.3904C75.7523 60.6676 74.9576 60.1613 74.065 59.9571C73.2601 59.8306 72.4358 59.9619 71.71 60.3323C71.0746 60.5554 70.5172 60.9573 70.1047 61.4898C69.6923 62.0223 69.4423 62.6626 69.385 63.3339C69.2844 64.2266 69.4215 65.1301 69.7825 65.9527C70.3173 67.1671 71.2337 68.1735 72.3925 68.8192C73.4952 69.407 74.6565 69.8774 75.8575 70.2224C76.465 70.4025 76.4725 70.41 76.5325 71.0778L77.9275 87.3236L71.5975 87.8489ZM64.8475 44.034L65.0125 44.1916C65.1974 44.1315 65.3579 44.013 65.47 43.8539C65.6531 43.6282 65.8564 43.4197 66.0775 43.2311C68.0826 41.4488 70.441 40.1098 72.9986 39.3017C75.5562 38.4935 78.2554 38.2344 80.92 38.5412C82.3727 38.7207 83.7998 39.0682 85.1725 39.5767C89.4605 41.1581 93.0485 44.2107 95.2975 48.1911C95.9666 49.3718 96.5168 50.616 96.94 51.9055C97.3614 53.2234 97.6454 54.5813 97.7875 55.9576C97.7875 56.0326 97.7875 56.1377 97.87 56.1677C97.9525 56.1977 98.005 56.1077 98.0575 56.0476C98.4025 55.6124 98.7475 55.1697 99.1 54.7345C99.3014 54.4937 99.4523 54.2148 99.5438 53.9144C99.6353 53.6141 99.6654 53.2983 99.6325 52.9861C99.5511 52.0564 99.3701 51.1381 99.0925 50.2472C97.7477 45.4278 94.6035 41.3096 90.31 38.7438C88.508 37.6761 86.5412 36.9154 84.49 36.4927C82.8601 36.1569 81.1948 36.0258 79.5325 36.1025C78.3885 36.1661 77.2533 36.3395 76.1425 36.6202C73.5638 37.2119 71.1451 38.3592 69.055 39.982C67.9479 40.8373 66.9279 41.8 66.01 42.8559C65.65 43.2461 65.245 43.6363 64.855 44.049L64.8475 44.034Z" fill="#FDC53F"/>
<path d="M94.4498 92.5463C94.559 92.8335 94.6099 93.1396 94.5998 93.4467C94.6823 94.2796 94.7498 95.1201 94.8173 95.9605C94.845 96.1432 94.8336 96.3298 94.7838 96.5077C94.7341 96.6857 94.6472 96.8511 94.5288 96.993C94.4104 97.1349 94.2632 97.25 94.097 97.3307C93.9309 97.4114 93.7495 97.4559 93.5648 97.4613C92.7548 97.5438 91.9373 97.6113 91.1273 97.6714C90.8723 97.6714 90.7673 97.7539 90.7748 98.0541C90.805 99.2258 90.3832 100.364 89.5971 101.233C88.8109 102.102 87.7206 102.635 86.5523 102.721C85.0523 102.842 83.5523 102.924 82.0073 103.119C80.8112 103.275 79.6011 102.96 78.6328 102.241C77.6644 101.521 77.0134 100.453 76.8173 99.2622C76.7573 98.9545 76.6448 98.9095 76.3673 98.9395C75.6173 99.0145 74.8673 99.0746 74.1173 99.1346C73.9192 99.1723 73.7153 99.1656 73.5201 99.1151C73.3249 99.0645 73.1433 98.9713 72.9884 98.8421C72.8335 98.713 72.7092 98.5511 72.6242 98.3681C72.5393 98.1852 72.496 97.9857 72.4973 97.7839C72.4448 97.1611 72.4073 96.5383 72.3623 95.9155C72.4898 95.9155 72.6098 95.8554 72.7073 96.0205C72.8021 96.1759 72.9393 96.3008 73.1028 96.3806C73.2662 96.4604 73.4491 96.4917 73.6298 96.4708C74.0273 96.4107 74.4173 96.4708 74.8148 96.4708L90.7448 95.075C91.6598 94.9925 92.5748 94.8724 93.4823 94.7599C93.6106 94.7468 93.7351 94.7084 93.8485 94.6469C93.9619 94.5853 94.0619 94.5019 94.1428 94.4014C94.2237 94.3009 94.2839 94.1853 94.3199 94.0614C94.3558 93.9374 94.3669 93.8076 94.3523 93.6793L94.2848 92.8839C94.2698 92.7113 94.2698 92.5838 94.4498 92.5463ZM84.2948 101.551C85.0448 101.423 86.0348 101.446 86.9948 101.251C87.6085 101.145 88.1913 100.905 88.702 100.548C89.2127 100.192 89.6387 99.7269 89.9498 99.1871C90.0686 98.8638 90.2354 98.5602 90.4448 98.2867C90.5031 98.2058 90.5375 98.1102 90.5441 98.0107C90.5507 97.9112 90.5293 97.8118 90.4823 97.7239C90.3923 97.5888 90.2273 97.7764 90.0773 97.7239C90 97.7165 89.9221 97.7165 89.8448 97.7239L77.7548 98.827C77.6207 98.8493 77.4839 98.8493 77.3498 98.827C77.0723 98.7594 77.1098 98.932 77.1323 99.0971C77.1548 99.2622 77.3648 99.5098 77.4773 99.7124C77.9096 100.428 78.5436 101 79.2998 101.356C80.1407 101.735 81.0709 101.87 81.9848 101.746L84.2948 101.551Z" fill="#3F4C55"/>
<path d="M71.5974 87.8489L77.8824 87.3011L79.7199 87.1435C81.5124 87.091 83.2899 86.8659 85.0674 86.7308C85.3084 86.7326 85.5483 86.6998 85.7799 86.6332C86.4813 86.6436 87.1821 86.5858 87.8724 86.4607L90.0549 86.3031L93.5124 86.0029C93.659 86.0155 93.8063 85.9896 93.9399 85.9279L94.2849 85.9729C94.2849 86.0329 94.3224 86.0329 94.3674 86.0179C94.7054 86.0665 95.0111 86.2449 95.2197 86.5153C95.4284 86.7857 95.5235 87.1268 95.4849 87.4662C95.1699 87.5412 95.3049 87.7813 95.3199 87.9539C95.3478 88.0732 95.3398 88.198 95.2971 88.3128C95.2545 88.4276 95.1789 88.5272 95.0799 88.5993C94.6896 88.8767 94.2301 89.0403 93.7524 89.072C86.6274 89.6873 79.5024 90.3026 72.3774 90.9179C72.1004 90.9407 71.822 90.9407 71.5449 90.9179C71.3168 90.9082 71.1017 90.8091 70.9459 90.642C70.7902 90.475 70.7063 90.2534 70.7124 90.025C70.7124 89.7398 70.6599 89.4622 70.6449 89.1846C70.6449 89.0345 70.6074 88.9144 70.4199 88.9369C70.5324 88.2466 71.0424 88.0215 71.5974 87.8489Z" fill="#4B555F"/>
<path d="M94.4498 92.5462C94.2698 92.5838 94.2698 92.7113 94.2848 92.8539L94.3523 93.6493C94.3668 93.7775 94.3558 93.9074 94.3198 94.0313C94.2839 94.1553 94.2237 94.2708 94.1428 94.3713C94.0619 94.4718 93.9618 94.5553 93.8484 94.6168C93.7351 94.6784 93.6106 94.7168 93.4823 94.7299C92.5748 94.8424 91.6598 94.9625 90.7448 95.045L74.7923 96.4257C74.3948 96.4257 74.0423 96.4257 73.6073 96.4257C73.4266 96.4467 73.2437 96.4154 73.0802 96.3356C72.9167 96.2558 72.7795 96.1308 72.6848 95.9755C72.5873 95.8104 72.4673 95.8704 72.3398 95.8704C72.3005 95.796 72.2769 95.7144 72.2705 95.6305C72.264 95.5466 72.2749 95.4622 72.3023 95.3827C72.4373 95.075 72.3023 94.7674 72.3023 94.4597C72.3698 94.4597 72.4823 94.4597 72.4823 94.3622C72.4823 94.2646 72.3923 94.3021 72.3323 94.2871C72.3225 94.2543 72.3256 94.219 72.3409 94.1883C72.3563 94.1576 72.3827 94.134 72.4148 94.122C72.5423 94.122 72.5798 94.0395 72.5648 93.9195C72.5498 93.7994 72.7973 93.7319 72.6848 93.5893C72.5723 93.4467 72.4673 93.5893 72.3473 93.5893C72.2273 93.5893 71.9873 93.6793 71.8223 93.5443C71.9198 93.4242 72.0698 93.4842 72.1898 93.4467C72.6773 93.2966 73.1573 93.5292 73.6448 93.4467C79.9148 92.9014 86.1873 92.3611 92.4623 91.8259C92.8335 91.7936 93.2004 91.7232 93.5573 91.6158C93.9327 91.4821 94.3379 91.4561 94.7273 91.5407C94.5473 91.7058 94.3298 91.6458 94.1198 91.6833C94.0373 91.6833 93.9173 91.6833 93.8798 91.7734C93.8423 91.8634 93.9548 91.9234 94.0223 91.9759C94.2277 92.1094 94.3792 92.3115 94.4498 92.5462Z" fill="#4B555F"/>
<path d="M94.7499 91.5557C94.3606 91.4711 93.9553 91.4971 93.5799 91.6308C93.2231 91.7382 92.8562 91.8086 92.4849 91.8409C86.2149 92.3812 79.9424 92.9214 73.6674 93.4617C73.1799 93.5067 72.6999 93.2741 72.2124 93.4617C72.0924 93.4617 71.9424 93.4617 71.8449 93.5592C71.5782 93.5533 71.3212 93.4574 71.1157 93.2872C70.9102 93.117 70.7681 92.8823 70.7124 92.6213C70.7124 92.6213 70.7574 92.5762 70.7574 92.5537C70.7049 91.4207 70.6074 90.3026 70.4724 89.1695C70.4724 89.1695 70.4349 89.132 70.4199 89.1095V88.9444C70.6074 88.9444 70.6299 89.0419 70.6449 89.192C70.6449 89.4697 70.6899 89.7473 70.7124 90.0324C70.7063 90.2608 70.7902 90.4824 70.9459 90.6495C71.1017 90.8165 71.3168 90.9156 71.5449 90.9254C71.822 90.9481 72.1004 90.9481 72.3774 90.9254C79.5024 90.3001 86.6274 89.6848 93.7524 89.0795C94.2301 89.0478 94.6897 88.8841 95.0799 88.6067C95.1789 88.5347 95.2545 88.435 95.2972 88.3203C95.3398 88.2055 95.3478 88.0806 95.3199 87.9614C95.3199 87.7888 95.1699 87.5487 95.4849 87.4736C95.6124 88.4041 95.6799 89.3421 95.7249 90.2801C95.6869 90.2961 95.6531 90.3209 95.6265 90.3525C95.5998 90.384 95.5809 90.4214 95.5714 90.4617C95.5619 90.5019 95.5621 90.5438 95.5718 90.5839C95.5815 90.6241 95.6006 90.6614 95.6274 90.6928C95.6394 90.7226 95.6414 90.7554 95.6333 90.7865C95.6252 90.8176 95.6074 90.8452 95.5824 90.8654C95.4324 90.8654 95.4024 90.9629 95.4474 91.0905C95.3803 91.221 95.281 91.3322 95.159 91.4136C95.0369 91.495 94.8961 91.5439 94.7499 91.5557Z" fill="#3F4C55"/>
<path d="M70.405 89.072C70.405 89.072 70.45 89.1095 70.4575 89.132C70.5925 90.2576 70.69 91.3831 70.7425 92.5162C70.7425 92.5162 70.7425 92.5612 70.6975 92.5837C70.6636 92.5521 70.6367 92.5138 70.6186 92.4711C70.6005 92.4285 70.5916 92.3825 70.5925 92.3361C70.5025 91.3381 70.42 90.3326 70.3375 89.3346C70.3279 89.2886 70.329 89.241 70.3407 89.1954C70.3524 89.1499 70.3744 89.1077 70.405 89.072Z" fill="#4B555F"/>
<path d="M72.3025 94.4973C72.3025 94.8049 72.4375 95.1126 72.3025 95.4202C72.25 95.1126 72.1225 94.8049 72.3025 94.4973Z" fill="#3F4C55"/>
<path d="M95.6275 90.6853C95.6006 90.6539 95.5816 90.6166 95.5718 90.5764C95.5621 90.5363 95.562 90.4944 95.5715 90.4542C95.581 90.414 95.5998 90.3765 95.6265 90.345C95.6532 90.3134 95.6869 90.2886 95.725 90.2726C95.7544 90.3428 95.7609 90.4207 95.7434 90.4948C95.7258 90.569 95.6853 90.6357 95.6275 90.6853Z" fill="#4B555F"/>
<path d="M72.3403 94.3246C72.4008 94.3246 72.4992 94.3247 72.4916 94.4003C72.4841 94.476 72.3781 94.476 72.3101 94.4987L72.3403 94.3246Z" fill="#3F4C55"/>
<path d="M94.3681 86.0191C94.3226 86.0191 94.2847 86.0191 94.2847 85.9735C94.2847 85.9279 94.3226 85.9279 94.3377 85.9355C94.3529 85.9431 94.3908 85.9811 94.3681 86.0191Z" fill="#DCA63B"/>
<path d="M95.4477 91.0849C95.4023 90.9563 95.4477 90.873 95.5839 90.8579C95.5788 90.9033 95.564 90.9471 95.5405 90.9863C95.517 91.0254 95.4854 91.0591 95.4477 91.0849Z" fill="#4B555F"/>
<path d="M72.5737 93.9195C72.5737 94.0405 72.5737 94.1162 72.4224 94.1237C72.4233 94.0782 72.4383 94.0341 72.4654 93.9975C72.4925 93.9608 72.5304 93.9336 72.5737 93.9195Z" fill="#3F4C55"/>
<path d="M79.7497 87.1435L77.9122 87.3011L76.4872 71.0628C76.4272 70.395 76.4197 70.3875 75.8122 70.2074C74.6112 69.8624 73.4499 69.392 72.3472 68.8042C71.1884 68.1585 70.272 67.152 69.7372 65.9377C69.3762 65.1151 69.2391 64.2116 69.3397 63.3189C69.397 62.6476 69.647 62.0073 70.0595 61.4748C70.4719 60.9423 71.0293 60.5404 71.6647 60.3173C72.3905 59.9469 73.2148 59.8155 74.0197 59.9421C74.9123 60.1463 75.707 60.6526 76.2697 61.3754C76.7339 61.9635 77.101 62.6221 77.3572 63.3264C77.6296 64.0027 77.8136 64.7114 77.9047 65.4349C78.0022 66.2979 78.0622 67.1683 78.1372 68.0313C78.1897 68.6766 78.2647 68.7366 78.8872 68.7816C80.0166 68.8669 81.1522 68.8165 82.2697 68.6316C82.8597 68.5506 83.4385 68.402 83.9947 68.1888C84.2047 68.1063 84.1597 67.9712 84.1447 67.8362L83.9422 65.48C83.7715 63.8997 84.0307 62.3027 84.6922 60.8576C84.9382 60.2231 85.362 59.6732 85.9128 59.2738C86.4636 58.8745 87.1179 58.6427 87.7972 58.6064C88.4371 58.5459 89.0822 58.6359 89.6812 58.8691C90.2802 59.1023 90.8165 59.4723 91.2472 59.9496C91.6196 60.3755 91.895 60.8772 92.0543 61.4201C92.2136 61.963 92.2529 62.5341 92.1697 63.0937C92.0418 64.584 91.3624 65.9729 90.2647 66.9882C89.1357 67.9239 87.8965 68.7177 86.5747 69.3519C86.4834 69.3858 86.4073 69.4515 86.3605 69.537C86.3136 69.6224 86.2992 69.7219 86.3197 69.8172L87.7522 86.0705C87.7581 86.204 87.7995 86.3335 87.8722 86.4457C87.1819 86.5708 86.4811 86.6286 85.7797 86.6182C85.7836 86.5533 85.7836 86.4881 85.7797 86.4231L84.4297 70.6651V70.4625C84.4297 70.2824 84.3097 70.2449 84.1522 70.2974C83.0849 70.6136 81.98 70.7852 80.8672 70.8077C80.2297 70.8077 79.5922 70.8527 78.9547 70.8077C78.3172 70.7627 78.4222 70.7627 78.4672 71.3029C78.9022 76.3755 79.3397 81.4481 79.7797 86.5207C79.7986 86.7287 79.7885 86.9383 79.7497 87.1435ZM76.1797 67.1308C76.1437 66.7655 76.0886 66.4023 76.0147 66.0427C75.9149 64.8877 75.5226 63.7772 74.8747 62.8161C74.6909 62.48 74.3991 62.2157 74.0467 62.0659C73.6942 61.9161 73.3016 61.8896 72.9322 61.9907C71.8222 62.2983 71.3422 62.9136 71.3347 63.8141C71.348 64.3883 71.4986 64.9509 71.7739 65.4549C72.0493 65.9588 72.4413 66.3894 72.9172 66.7106C73.7735 67.2685 74.6988 67.7125 75.6697 68.0313C76.1872 68.2564 76.2697 68.1738 76.2247 67.6261C76.1797 67.491 76.1722 67.3634 76.1497 67.1308H76.1797ZM87.9772 60.6775C87.7163 60.6814 87.4618 60.7588 87.243 60.9008C87.0241 61.0428 86.8496 61.2437 86.7397 61.4804C86.4482 61.9838 86.2405 62.5312 86.1247 63.1012C85.9184 64.4013 85.9184 65.7257 86.1247 67.0257C86.1247 67.3184 86.2897 67.2734 86.4697 67.1683L87.8647 66.3129C88.4512 66.0002 88.9628 65.5639 89.3642 65.034C89.7657 64.5041 90.0473 63.8933 90.1897 63.2438C90.2817 62.918 90.291 62.5743 90.2167 62.244C90.1423 61.9137 89.9867 61.6072 89.764 61.3523C89.5412 61.0974 89.2584 60.9021 88.9411 60.7843C88.6239 60.6665 88.2822 60.6298 87.9472 60.6775H87.9772Z" fill="#DCA63B"/>
<path d="M64.855 44.049C65.245 43.6513 65.65 43.2986 66.0175 42.8409C66.9354 41.7849 67.9554 40.8223 69.0625 39.9669C71.1526 38.3442 73.5713 37.1969 76.15 36.6052C77.2608 36.3245 78.396 36.1511 79.54 36.0875C81.2023 36.0108 82.8676 36.1419 84.4975 36.4777C86.5487 36.9004 88.5155 37.6611 90.3175 38.7288C94.611 41.2946 97.7552 45.4128 99.1 50.2322C99.3776 51.1232 99.5586 52.0414 99.64 52.9711C99.6729 53.2833 99.6428 53.5991 99.5513 53.8994C99.4598 54.1998 99.3089 54.4787 99.1075 54.7195C98.755 55.1547 98.41 55.5974 98.065 56.0326C98.0125 56.0927 97.975 56.1827 97.8775 56.1527C97.78 56.1227 97.8025 56.0176 97.795 55.9426C97.6529 54.5663 97.3689 53.2084 96.9475 51.8905C96.5243 50.601 95.9741 49.3568 95.305 48.1761C93.0587 44.1901 89.4704 41.1319 85.18 39.5467C83.8073 39.0382 82.3802 38.6907 80.9275 38.5112C78.2629 38.2044 75.5637 38.4635 73.0061 39.2716C70.4485 40.0798 68.0901 41.4188 66.085 43.2011C65.8639 43.3897 65.6606 43.5982 65.4775 43.8239C65.3655 43.983 65.2049 44.1014 65.02 44.1616L64.855 44.049Z" fill="#F6E9CC"/>
<path d="M84.2949 101.558L81.9849 101.753C81.0711 101.877 80.1408 101.742 79.2999 101.363C78.5437 101.007 77.9097 100.436 77.4774 99.7199C77.3649 99.5173 77.1699 99.3522 77.1324 99.1046C77.0949 98.857 77.0724 98.7669 77.3499 98.8345C77.484 98.8569 77.6208 98.8569 77.7549 98.8345L89.8449 97.799C89.9222 97.7916 90.0001 97.7916 90.0774 97.799C90.2274 97.799 90.3924 97.6339 90.4824 97.799C90.5294 97.8869 90.5508 97.9862 90.5442 98.0857C90.5376 98.1852 90.5032 98.2808 90.4449 98.3617C90.2355 98.6353 90.0687 98.9388 89.9499 99.2622C89.6388 99.802 89.2128 100.267 88.7021 100.623C88.1915 100.98 87.6086 101.22 86.9949 101.326C86.0349 101.453 85.0599 101.431 84.2949 101.558Z" fill="#4B555F"/>
<path d="M79.7499 87.1435C79.7802 86.932 79.7802 86.7172 79.7499 86.5057C79.3099 81.4331 78.8724 76.3605 78.4374 71.2879C78.3924 70.7476 78.3924 70.7551 78.9249 70.7927C79.4574 70.8302 80.1999 70.7927 80.8374 70.7927C81.9503 70.7702 83.0551 70.5986 84.1224 70.2824C84.2799 70.2299 84.3849 70.2824 84.3999 70.4475V70.6501L85.7499 86.4081C85.7538 86.4731 85.7538 86.5383 85.7499 86.6032C85.5183 86.6698 85.2784 86.7026 85.0374 86.7008C83.2899 86.8659 81.5124 87.091 79.7499 87.1435Z" fill="#FDC53F"/>
<path d="M76.1497 67.1308C76.1497 67.3634 76.1497 67.491 76.1947 67.626C76.2397 68.1738 76.1947 68.2563 75.6397 68.0312C74.6688 67.7125 73.7435 67.2685 72.8872 66.7106C72.4113 66.3894 72.0193 65.9588 71.7439 65.4548C71.4686 64.9509 71.318 64.3883 71.3047 63.8141C71.3047 62.9136 71.7922 62.3133 72.9022 61.9907C73.2716 61.8896 73.6642 61.9161 74.0167 62.0659C74.3692 62.2157 74.6609 62.48 74.8447 62.8161C75.4926 63.7772 75.8849 64.8877 75.9847 66.0427C76.0587 66.4023 76.1137 66.7654 76.1497 67.1308Z" fill="#FDC53F"/>
<path d="M87.9472 60.6775C88.2828 60.6284 88.6254 60.664 88.9437 60.7812C89.262 60.8984 89.5459 61.0935 89.7696 61.3486C89.9933 61.6037 90.1496 61.9108 90.2242 62.2418C90.2989 62.5729 90.2896 62.9173 90.1972 63.2438C90.0548 63.8933 89.7732 64.5041 89.3718 65.034C88.9703 65.5639 88.4587 66.0002 87.8722 66.3129L86.4997 67.1683C86.3197 67.2734 86.1772 67.3184 86.1547 67.0258C85.9484 65.7257 85.9484 64.4013 86.1547 63.1013C86.2705 62.5312 86.4782 61.9838 86.7697 61.4804C86.8751 61.2526 87.0402 61.0576 87.2476 60.9162C87.4549 60.7748 87.6967 60.6923 87.9472 60.6775Z" fill="#FDC53F"/>
</svg>
