<?xml version="1.0" standalone="no"?><svg xmlns="http://www.w3.org/2000/svg" viewBox="0 0 1440 320"><path fill="#f3d457" fill-opacity="1" d="M0,64L21.8,80C43.6,96,87,128,131,117.3C174.5,107,218,53,262,64C305.5,75,349,149,393,160C436.4,171,480,117,524,90.7C567.3,64,611,64,655,96C698.2,128,742,192,785,202.7C829.1,213,873,171,916,149.3C960,128,1004,128,1047,117.3C1090.9,107,1135,85,1178,101.3C1221.8,117,1265,171,1309,160C1352.7,149,1396,75,1418,37.3L1440,0L1440,0L1418.2,0C1396.4,0,1353,0,1309,0C1265.5,0,1222,0,1178,0C1134.5,0,1091,0,1047,0C1003.6,0,960,0,916,0C872.7,0,829,0,785,0C741.8,0,698,0,655,0C610.9,0,567,0,524,0C480,0,436,0,393,0C349.1,0,305,0,262,0C218.2,0,175,0,131,0C87.3,0,44,0,22,0L0,0Z"></path></svg>