<?xml version="1.0" standalone="no"?><svg xmlns="http://www.w3.org/2000/svg" viewBox="0 0 1440 320"><path fill="#f3d457" fill-opacity="1" d="M0,288L34.3,240C68.6,192,137,96,206,74.7C274.3,53,343,107,411,128C480,149,549,139,617,117.3C685.7,96,754,64,823,58.7C891.4,53,960,75,1029,117.3C1097.1,160,1166,224,1234,234.7C1302.9,245,1371,203,1406,181.3L1440,160L1440,0L1405.7,0C1371.4,0,1303,0,1234,0C1165.7,0,1097,0,1029,0C960,0,891,0,823,0C754.3,0,686,0,617,0C548.6,0,480,0,411,0C342.9,0,274,0,206,0C137.1,0,69,0,34,0L0,0Z"></path></svg>